<svg width="1399" height="470" viewBox="0 0 1399 470" fill="none" xmlns="http://www.w3.org/2000/svg">
<path d="M161.035 377.623C140.232 377.623 120.841 374.284 102.862 367.606C85.1407 360.672 69.7306 350.912 56.6321 338.327C43.5335 325.742 33.2601 310.974 25.8119 294.023C18.6205 277.072 15.0248 258.452 15.0248 238.162C15.0248 217.872 18.6205 199.251 25.8119 182.3C33.2601 165.349 43.5335 150.581 56.6321 137.996C69.9875 125.411 85.526 115.78 103.248 109.102C120.969 102.168 140.36 98.7005 161.421 98.7005C184.793 98.7005 205.853 102.81 224.602 111.029C243.608 118.99 259.532 130.805 272.373 146.472L232.307 183.456C223.061 172.926 212.788 165.092 201.487 159.956C190.186 154.562 177.858 151.865 164.503 151.865C151.918 151.865 140.36 153.92 129.83 158.029C119.3 162.139 110.182 168.046 102.477 175.751C94.772 183.456 88.7364 192.574 84.3702 203.104C80.2609 213.634 78.2062 225.32 78.2062 238.162C78.2062 251.003 80.2609 262.689 84.3702 273.22C88.7364 283.75 94.772 292.868 102.477 300.573C110.182 308.278 119.3 314.185 129.83 318.294C140.36 322.404 151.918 324.458 164.503 324.458C177.858 324.458 190.186 321.89 201.487 316.753C212.788 311.36 223.061 303.269 232.307 292.482L272.373 329.467C259.532 345.133 243.608 357.076 224.602 365.295C205.853 373.514 184.664 377.623 161.035 377.623ZM417.023 373V332.549L413.171 323.688V251.26C413.171 238.419 409.19 228.402 401.228 221.211C393.523 214.019 381.58 210.424 365.4 210.424C354.356 210.424 343.44 212.221 332.653 215.817C322.123 219.156 313.134 223.779 305.686 229.686L284.111 187.694C295.412 179.732 309.024 173.568 324.948 169.202C340.872 164.835 357.053 162.652 373.49 162.652C405.081 162.652 429.608 170.101 447.073 184.997C464.538 199.893 473.27 223.137 473.27 254.728V373H417.023ZM353.842 376.082C337.661 376.082 323.792 373.385 312.235 367.992C300.677 362.341 291.816 354.765 285.652 345.262C279.488 335.759 276.406 325.1 276.406 313.286C276.406 300.958 279.36 290.171 285.267 280.925C291.431 271.679 301.063 264.487 314.161 259.351C327.26 253.957 344.339 251.26 365.4 251.26H420.491V286.318H371.949C357.823 286.318 348.063 288.63 342.67 293.253C337.533 297.876 334.965 303.655 334.965 310.589C334.965 318.294 337.918 324.458 343.826 329.081C349.99 333.447 358.337 335.631 368.867 335.631C378.883 335.631 387.873 333.319 395.835 328.696C403.796 323.816 409.575 316.753 413.171 307.507L422.417 335.245C418.051 348.601 410.089 358.746 398.531 365.68C386.974 372.615 372.077 376.082 353.842 376.082ZM578.131 376.082C560.409 376.082 543.33 374.027 526.893 369.918C510.712 365.552 497.87 360.158 488.367 353.737L508.4 310.589C517.903 316.496 529.076 321.376 541.917 325.229C555.016 328.824 567.858 330.622 580.443 330.622C594.312 330.622 604.071 328.953 609.722 325.614C615.629 322.275 618.583 317.652 618.583 311.745C618.583 306.865 616.271 303.269 611.648 300.958C607.282 298.389 601.375 296.463 593.926 295.179C586.478 293.895 578.26 292.611 569.27 291.327C560.538 290.042 551.677 288.373 542.688 286.318C533.699 284.007 525.48 280.668 518.032 276.302C510.584 271.936 504.548 266.028 499.925 258.58C495.559 251.132 493.376 241.501 493.376 229.686C493.376 216.588 497.1 205.03 504.548 195.013C512.253 184.997 523.297 177.163 537.68 171.513C552.062 165.606 569.27 162.652 589.303 162.652C603.429 162.652 617.812 164.193 632.452 167.275C647.091 170.357 659.291 174.852 669.051 180.759L649.017 223.522C639.001 217.615 628.856 213.634 618.583 211.579C608.566 209.268 598.806 208.112 589.303 208.112C575.948 208.112 566.188 209.91 560.024 213.506C553.86 217.101 550.778 221.724 550.778 227.375C550.778 232.511 552.961 236.364 557.327 238.932C561.951 241.501 567.986 243.555 575.434 245.096C582.883 246.637 590.973 248.05 599.705 249.334C608.694 250.361 617.684 252.031 626.673 254.342C635.662 256.654 643.752 259.993 650.944 264.359C658.392 268.468 664.428 274.247 669.051 281.695C673.674 288.887 675.985 298.389 675.985 310.204C675.985 323.046 672.133 334.475 664.428 344.491C656.723 354.251 645.55 361.956 630.911 367.606C616.528 373.257 598.935 376.082 578.131 376.082ZM819.781 162.652C836.218 162.652 850.858 165.991 863.699 172.669C876.798 179.09 887.071 189.106 894.519 202.719C901.968 216.074 905.692 233.282 905.692 254.342V373H845.592V263.588C845.592 246.894 841.868 234.566 834.42 226.604C827.229 218.642 816.955 214.661 803.6 214.661C794.097 214.661 785.493 216.716 777.788 220.825C770.34 224.678 764.433 230.714 760.066 238.932C755.957 247.151 753.902 257.681 753.902 270.523V373H693.803V87.1429H753.902V223.137L740.419 205.801C747.867 191.931 758.525 181.273 772.394 173.825C786.264 166.376 802.059 162.652 819.781 162.652Z" fill="#87E64B"/>
<rect x="929" width="470" height="470" rx="55" fill="#87E64B"/>
<path d="M1184.72 162.652C1201.15 162.652 1215.79 165.991 1228.63 172.669C1241.73 179.09 1252.01 189.106 1259.45 202.719C1266.9 216.074 1270.63 233.282 1270.63 254.342V373H1210.53V263.588C1210.53 246.894 1206.8 234.566 1199.36 226.604C1192.16 218.642 1181.89 214.661 1168.54 214.661C1159.03 214.661 1150.43 216.716 1142.72 220.825C1135.27 224.678 1129.37 230.714 1125 238.932C1120.89 247.151 1118.84 257.681 1118.84 270.523V373H1058.74V165.734H1116.14V223.137L1105.35 205.801C1112.8 191.931 1123.46 181.273 1137.33 173.825C1151.2 166.376 1166.99 162.652 1184.72 162.652Z" fill="#181818"/>
<path d="M1058.74 373V165.734H1118.84V373H1058.74ZM1088.79 136.84C1077.74 136.84 1068.75 133.63 1061.82 127.209C1054.89 120.788 1051.42 112.826 1051.42 103.323C1051.42 93.8206 1054.89 85.8587 1061.82 79.4378C1068.75 73.017 1077.74 69.8065 1088.79 69.8065C1099.83 69.8065 1108.82 72.8885 1115.76 79.0526C1122.69 84.9598 1126.16 92.6648 1126.16 102.168C1126.16 112.184 1122.69 120.531 1115.76 127.209C1109.08 133.63 1100.09 136.84 1088.79 136.84Z" fill="#181818"/>
</svg>
